<?xml version="1.0" standalone="no"?>
<!DOCTYPE svg PUBLIC "-//W3C//DTD SVG 1.1//EN" "http://www.w3.org/Graphics/SVG/1.1/DTD/svg11.dtd">
<svg xmlns="http://www.w3.org/2000/svg">
<metadata>Generated by Fontastic.me</metadata>
<defs>
<font id="portfolio-icons" horiz-adv-x="512">
<font-face font-family="portfolio-icons" units-per-em="512" ascent="480" descent="-32"/>
<missing-glyph horiz-adv-x="512" />

<glyph glyph-name="medical111" unicode="&#97;" d="M497 378c-10 2-19-4-21-14 0 0-4-18-19-40l-133 133c22 14 40 18 40 19 10 2 16 11 14 21-2 10-12 17-22 15-1-1-45-10-87-53-42-42-42-107-34-183-74 8-138 12-180-30-43-44-54-88-55-90-2-10 4-20 14-22 2 0 3-1 4-1 9 0 16 6 18 15 0 0 5 18 20 41l133-133c-23-15-41-20-41-20-10-2-16-12-14-22 2-8 9-14 18-14 1 0 3 0 4 0 2 1 46 12 90 55 42 42 38 106 30 180 76-8 141-8 183 34 43 42 52 86 53 87 2 10-5 20-15 22z m-52-70c-3-4-7-9-12-13-3-3-6-6-9-8l-137 137c2 3 5 6 8 9 4 5 9 9 13 12z m-73-39l-103 103c2 13 4 24 8 34l129-129c-10-4-21-6-34-8z m-230-25l102-102c-1-13-4-25-8-35l-129 129c10 4 22 7 35 8z m27 0c21 0 44-2 70-5 3-26 5-49 5-70z m-101-39c4 5 8 10 13 15 3 2 5 4 8 6l137-137c-2-3-4-5-6-8-5-5-10-9-15-13z m204 67c-3 28-5 53-5 74l79-79c-21 0-46 2-74 5z"/>
<glyph glyph-name="dna16" unicode="&#98;" d="M501 379c-7 1-14-3-16-11 0 0-1-4-4-11-2 0-4 0-6 0-4 0-6 0-9-1l-114 113c1 2 1 3 1 5 0 2 0 3-1 5 9 4 15 6 16 6 8 2 12 9 11 16-2 8-9 12-17 11 0 0-12-3-28-13-3 1-5 2-8 2-15 0-27-12-27-27 0 0 0-1 0-1-15-15-29-37-39-65-9-5-14-14-14-24 0-6 2-11 5-15-4-25-5-54 0-87l3-28c3-31 1-58-2-82-2 0-4-1-5-1l-77 76c1 2 1 3 2 5 17 2 40 4 59 3l0 28c-25 0-48-2-68-7-5 4-11 7-18 7-11 0-21-8-25-18-24-9-44-19-60-30-1 0-2 0-3 0-14 0-25-10-27-23-18-16-27-29-28-31-3-5-2-12 2-17 1 0 2-1 3-2 6-4 15-1 19 5 0 1 5 9 15 20 3-2 6-4 10-4l135-136c0-2 0-4 1-6-11-10-19-15-20-15-6-4-9-13-5-19 1-1 2-2 2-3 5-4 12-5 17-2 2 1 12 7 25 20 2-1 4-1 7-1 14 0 26 12 26 26 0 4 0 8-2 11 11 17 22 38 31 64 9 4 15 13 15 24 0 5-2 11-5 15 5 26 6 56 4 90 0 0-2 28-3 28-4 29-5 54-3 76l78-79c-15-1-44-1-63 0l13-28c24-1 45 1 64 5 5-4 10-6 16-6 12 0 21 7 25 17 27 11 48 25 63 40 1 0 2 0 3 0 14 0 26 12 26 27 0 3 0 5-1 8 8 13 12 23 12 23 1 8-3 15-11 17z m-285-305l-133 133c0 1 0 1 0 2 0 2 0 4-1 6 13 8 27 16 44 22 5-5 12-8 19-8 1 0 1 0 1 0l83-83c0 0 0 0 0 0 0-12 7-21 17-25-7-19-16-35-25-48-1 0-3 1-5 1z m83 315c-1 4-3 8-5 11 7 20 16 36 26 48 2-1 4-1 6-1 2 0 4 0 6 1l116-116c0-1 0-1 0-1 0-7 2-13 7-18-12-10-28-20-47-27-4 8-12 13-20 14z"/>
<glyph glyph-name="chemistry" unicode="&#99;" d="M221 512c-11-1-22-7-27-17-1-1-2-3-3-5l-60 0c-2 3-5 6-9 8-10 6-24 2-30-8-4-7-4-15 0-22l-47-78c-8 0-16-5-20-12-6-10-2-24 8-30 4-2 8-3 12-3l41-68c-5-6-8-13-8-21 0-8 3-15 8-21l-35-58c-2 1-4 1-6 1-19 0-34-15-34-33 0-19 15-34 34-34 2 0 4 1 6 1l35-57c-5-6-8-14-8-22 0-18 15-33 33-33 15 0 27 9 32 22l48 0c5-13 17-22 32-22 18 0 33 15 33 33 0 8-3 16-8 22l35 57c2 0 4-1 6-1 15 0 27 10 32 23l60 0c4-7 12-12 20-12 12 0 22 10 22 23 0 3-1 7-3 10l41 68c2 0 4 0 6 0 19 0 34 15 34 33 0 18-15 33-34 33-2 0-4 0-6 0l-41 68c2 3 3 7 3 10 0 13-10 23-22 23-8 0-16-5-20-12l-72 0c-4 7-12 12-20 12 0 0 0 0 0 0l-41 67c2 2 3 3 4 5 9 16 3 36-13 46-5 3-12 4-18 4z m-90-45l60 0c3-7 8-13 15-17 7-4 15-6 23-4l41-68c-2-3-3-7-3-11 0-3 1-7 3-10l-41-68c-2 0-4 0-6 0-15 0-27-9-32-22l-48 0c-5 13-17 22-32 22-2 0-4 0-6 0l-41 68c4 6 4 14 0 21l47 78c8 0 16 4 20 11z m178-111l72 0c4-7 12-11 20-11 0 0 0 0 0 0l41-68c-5-6-8-13-8-21 0-8 3-15 8-21l-41-68c0 0 0 0 0 0-8 0-16-4-20-11l-60 0c-5 13-17 22-32 22-2 0-4 0-6-1l-35 58c5 6 8 13 8 21 0 8-3 15-8 21l41 68c0 0 0 0 0 0 8 0 16 4 20 11z m-198-89c7 0 11-5 11-11 0-6-4-11-11-11-6 0-11 5-11 11 0 6 5 11 11 11z m112 0c6 0 11-5 11-11 0-6-5-11-11-11-7 0-12 5-12 11 0 6 5 11 12 11z m-80-22l48 0c5-13 17-22 32-22 2 0 4 0 6 0l35-57c-5-6-8-13-8-21 0-8 3-16 8-22l-35-57c-2 1-4 1-6 1-15 0-27-10-32-22l-48 0c-5 12-17 22-32 22-2 0-4 0-6-1l-35 57c5 6 8 14 8 22 0 8-3 15-8 21l35 57c2 0 4 0 6 0 15 0 27 9 32 22z m-98-89c6 0 11-5 11-11 0-7-5-11-11-11-7 0-12 4-12 11 0 6 5 11 12 11z m244 0c7 0 12-5 12-11 0-7-5-11-12-11-6 0-11 4-11 11 0 6 5 11 11 11z m-178-111c7 0 11-5 11-12 0-6-4-11-11-11-6 0-11 5-11 11 0 7 5 12 11 12z m112 0c6 0 11-5 11-12 0-6-5-11-11-11-7 0-12 5-12 11 0 7 5 12 12 12z"/>
<glyph glyph-name="atom27" unicode="&#100;" d="M483 503c-28 16-64 7-80-21-10-19-9-41 0-58l-87-112c-13 7-28 11-44 11-3 0-6-1-9-1l-20 63c17 15 25 38 19 60-9 31-41 50-72 41-31-8-49-40-41-71 7-24 28-41 51-43l20-63c-30-18-51-51-51-89 0-4 0-8 0-12l-68-23c-16 18-43 25-67 14-29-14-42-48-29-77 14-30 48-42 77-29 21 9 33 29 34 50l68 23c18-30 51-49 88-49 17 0 34 4 48 12l38-44c-10-19-9-42 5-61 19-25 55-31 81-12 26 20 31 56 12 82-15 20-41 28-64 20l-38 44c13 17 21 38 21 62 0 24-9 47-24 65l88 112c25-7 52 3 65 27 16 28 7 63-21 79z"/>
<glyph glyph-name="eye106" unicode="&#101;" d="M505 271c0 0-138 137-249 137-111 0-250-137-250-137-8-8-8-21 0-29 0 0 139-138 250-138 111 0 249 138 249 138 9 8 9 21 0 29z m-248-126c-61 0-111 50-111 111 0 61 50 110 111 110 61 0 110-49 110-110 0-61-49-111-110-111z m-1 182c-39 0-71-31-71-70 0-39 32-71 71-71 38 0 70 32 70 71 0 39-32 70-70 70z m26-70c-12 0-22 9-22 22 0 12 10 21 22 21 12 0 22-9 22-21 0-13-10-22-22-22z"/>
<glyph glyph-name="web58" unicode="&#102;" d="M85 274l19-74 29 0 37 114-30 0-21-75-20 75-29 0-19-75-22 75-29 0 36-114 29 0z m185 40l-29 0-19-75-22 75-29 0 36-114 29 0 20 74 19-74 29 0 37 114-30 0-22-75z m212 0l-22-75-19 75-29 0-20-75-21 75-29 0 36-114 29 0 20 74 19-74 29 0 37 114z m-226 162c-88 0-164-53-199-128l398 0c-35 75-111 128-199 128z m0-440c88 0 164 53 199 128l-398 0c35-75 111-128 199-128z"/>
<glyph glyph-name="touch18" unicode="&#103;" d="M156 322l0 22c-22 15-37 40-37 68 0 45 37 82 82 82 46 0 82-37 82-82 0-17-5-33-14-46 2 0 4 0 5 0 6 0 11 0 15-2 7 15 13 31 13 48 0 54-46 100-101 100-55 0-100-46-100-100 0-39 22-74 55-90z m109 90c0 34-29 63-64 63-34 0-64-29-64-63 0-19 8-33 19-44l0 44c0 25 20 45 45 45 26 0 46-20 46-45l0-44c11 11 18 25 18 44z m156-101c-15 0-28-13-28-27l0-46-18 0 0 64c0 15-13 27-28 27-14 0-27-12-27-27l0-46-18 0 0 64c0 15-13 28-28 28-14 0-27-13-27-28l0-82-18 0 0 174c0 14-13 27-28 27-14 0-27-13-27-27l0-189c-38 41-88 84-108 64-20-20 33-75 104-195 33-55 73-92 143-92 75 0 137 63 137 137l0 147c-2 14-15 27-29 27z"/>
<glyph glyph-name="physics10" unicode="&#104;" d="M445 256c3 3 5 6 7 8 35 46 44 88 26 119-10 18-34 40-88 40-12 0-26-1-39-4-2 4-3 8-5 11-22 53-54 82-90 82-36 0-68-29-90-82-2-3-3-7-5-11-13 3-27 4-39 4-54 0-78-22-88-40-18-31-9-73 26-119 2-2 4-5 7-8-3-3-5-6-7-8-35-46-44-88-26-119 10-18 34-40 88-40 0 0 0 0 0 0 12 0 26 1 39 4 2-4 3-8 5-11 22-53 54-82 90-82 36 0 68 29 90 82 2 3 3 7 5 11 13-3 27-4 39-4 54 0 78 22 88 40 18 31 9 73-26 119-2 2-4 5-7 8z m-55 124c26 0 45-6 51-18 9-15 0-42-23-72 0-1-1-2-2-3-13 13-27 25-43 37-2 19-6 37-10 54 10 2 19 2 27 2z m-95-192c-13-8-26-15-39-21-13 6-26 13-39 21-13 7-26 15-38 23-1 15-2 30-2 45 0 15 1 30 2 45 12 8 25 16 38 23 13 8 26 15 39 21 13-6 26-13 39-21 13-7 26-15 38-23 1-15 2-30 2-45 0-15-1-30-2-45-12-8-25-16-38-23z m30-32c-1-5-2-9-3-13-5 1-9 2-13 3 2 2 5 3 7 5 3 1 6 3 9 5z m-122-9c-4-2-8-3-13-4-1 4-2 8-3 13 3-2 6-4 9-5 2-2 5-3 7-4z m-68 99c-4 3-7 7-11 10 4 3 7 7 11 10 0-3 0-7 0-10 0-3 0-7 0-10z m52 110c1 5 2 9 3 13 5-1 9-2 13-4-2-1-5-2-7-4-3-1-6-3-9-5z m122 9c4 2 8 3 13 4 1-4 2-8 3-13-3 2-6 4-9 5-2 2-5 3-7 4z m68-99c4-3 7-7 11-10-4-3-7-7-11-10 0 3 0 7 0 10 0 3 0 7 0 10z m-172 148c15 35 34 56 51 56 17 0 36-21 51-56 1-2 1-3 2-4-17-5-35-11-53-19-18 8-36 14-53 19 1 1 1 2 2 4z m-134-52c6 12 25 18 51 18 8 0 17 0 27-2-4-17-8-35-10-54-16-12-30-24-43-37-1 1-2 2-2 3-23 30-32 57-23 72z m51-230c-26 0-45 6-51 18-9 15 0 42 23 72 0 1 1 2 2 3 13-13 27-25 43-37 2-19 6-37 10-54-10-2-19-2-27-2z m185-34c-15-35-34-56-51-56-17 0-36 21-51 56-1 2-1 3-2 4 17 5 35 11 53 19 18-8 36-14 53-19-1-1-1-2-2-4z m134 52c-6-12-25-18-51-18-8 0-17 0-27 2 4 17 8 35 10 54 16 12 30 24 43 37 1-1 2-2 2-3 23-30 32-57 23-72z m-130 106c0-30-25-55-55-55-30 0-55 25-55 55 0 30 25 55 55 55 30 0 55-25 55-55z"/>
<glyph glyph-name="alcohol65" unicode="&#105;" d="M440 333l-10 0c22 18 37 45 37 76 0 54-45 98-99 98-27 0-52-11-71-30-7 2-15 3-23 3-16 0-31-4-44-12-18 24-47 39-78 39-38 0-73-22-89-57-36-9-63-43-63-82 0-40 28-74 66-82l0-197c0-46 38-84 85-84l159 0c47 0 85 38 85 84l0 4 45 0c40 0 72 32 72 72l0 95c0 40-32 73-72 73z m-301 13c-5 0-10-2-13-7-10-13-25-21-41-21-28 0-51 23-51 50 0 26 19 47 44 50 6 1 12 6 14 12 9 25 33 43 60 43 25 0 48-15 58-37 3-5 7-9 13-10 5-1 11 1 15 5 10 9 22 15 36 15 7 0 15-2 21-5 8-4 17-1 22 5 12 17 31 27 51 27 35 0 64-29 64-64 0-35-29-64-64-64-14 0-28 5-39 14-6 5-16 4-22-1-9-8-21-13-33-13-18 0-34 9-43 24-3 5-8 8-14 8-5 0-11-2-14-7-5-6-11-12-18-16-6-3-9-9-9-15l0-57c0-1-1-2-2-2l-10 0c-1 0-2 1-2 2l0 46c0 9-7 17-16 18z m221-257c0-27-22-50-50-50l-159 0c-28 0-50 23-50 50l0 196c9 2 18 5 26 10l0-13c0-20 17-37 37-37l10 0c20 0 37 17 37 37l0 48c1 1 3 3 5 4 15-15 36-23 58-23 16 0 32 4 45 13 13-7 27-12 41-13z m118 76c0-21-17-38-38-38l-45 0 0 171 45 0c21 0 38-17 38-38z m-172 61c-9 0-17-7-17-17l0-126c0-10 8-17 17-17 10 0 17 7 17 17l0 126c0 10-7 17-17 17z m-75 0c-10 0-18-7-18-17l0-126c0-10 8-17 18-17 9 0 17 7 17 17l0 126c0 10-8 17-17 17z m-76 0c-10 0-17-7-17-17l0-126c0-10 7-17 17-17 9 0 17 7 17 17l0 126c0 10-8 17-17 17z"/>
<glyph glyph-name="fc" unicode="&#106;" d="M205 262c12 9 30 18 51 19 22 0 39-9 51-19 1-1 2-1 3-2 10 9 12 23-6 41-3 3-6 7-8 9-6 9-4 15 3 21-17-1-21-6-21-13-4 3-8 5-15 8-4 2-9 4-13 6-10 8-12 15-8 27-26-15-13-31-5-40 4-6 6-16-6-23 2 10 6 25-17 29 6-8 8-15 2-23-2-2-5-6-8-9-17-16-17-29-9-37 1 2 3 4 6 6z m56 75c4-4 8-5 12-4-6 0-14 7-8 21 5 10-2 15-7 17 0 0-1 0-1 1 1-5-1-11-2-16-1-7-1-14 6-19z m-5-69c-34 0-63-33-63-33 0 0 29-32 63-32 34 0 63 32 63 32 0 0-29 33-63 33z m0-48c-10 0-19 7-19 16 0 10 9 17 19 17 10 0 19-7 19-17 0-8-9-16-19-16z m5 26c0 0 0-1 0 0 0-4-2-7-5-7-3 0-5 3-5 6 0 0 0 1 0 1-3-2-5-6-5-9 0-5 5-10 10-10 6 0 10 4 10 10 0 3-2 7-5 9z"/>
<glyph glyph-name="sports-ball19" unicode="&#107;" d="M467 401c-39 57-98 94-165 107-15 3-31 4-46 4-124 0-230-88-252-210-25-139 67-272 206-298 15-3 31-4 46-4 0 0 0 0 0 0 124 0 229 88 252 210 12 67-3 135-41 191z m-437-104c8 45 29 84 58 116 6-7 11-13 16-20l-10-11c-5-5-6-13 0-18 2-3 5-4 9-4 3 0 6 1 9 4l7 6c5-8 9-16 12-24l-15-7c-6-3-9-10-7-17 3-5 7-8 12-8 2 0 4 1 6 1l13 6c3-9 5-18 6-27l-12-1c-7-1-13-7-12-14 1-7 6-12 13-12 0 0 1 0 1 0l13 1c1-8 1-17 0-26l-13 1c-7 1-13-4-14-11-1-8 5-14 12-15l12-1c0 0 0-1 0-1-2-9-4-17-6-26l-13 6c-7 3-15 0-18-7-2-6 1-14 7-17l15-6c-4-8-8-17-13-25l-6 7c-5 5-13 5-19-1-5-5-4-13 1-18l10-10c-5-6-11-13-16-19-48 52-72 124-58 198z m226-271c-14 0-28 1-41 4-42 7-79 26-108 51 5 6 11 13 16 19l9-9c2-2 6-4 9-4 3 0 7 2 9 4 5 6 5 14 0 19l-12 12c6 10 12 21 17 33l10-5c2-1 3-1 5-1 5 0 10 3 12 8 3 7 0 14-7 17l-11 5c3 10 5 20 7 31 1 1 1 2 1 4l15-2c0 0 0 0 1 0 6 0 12 5 13 12 0 7-5 13-12 14l-14 2c1 10 1 20 0 31l14 1c7 1 12 7 12 14-1 8-7 13-14 12l-15-1c-2 12-4 23-8 35l11 4c7 3 10 11 7 17-3 7-10 10-17 7l-10-4c-5 11-10 22-17 33l12 12c5 5 5 13 0 18-5 5-13 5-18 0l-9-8c-5 7-11 13-16 20 40 34 92 55 149 55 14 0 28-1 41-4 41-7 77-25 107-50-6-7-12-14-17-21l-9 8c-5 5-13 5-18 0-5-5-5-13 0-18l12-12c-6-11-12-22-17-33l-10 4c-6 3-14 0-17-7-3-6 0-14 7-17l11-4c-3-12-6-23-8-35l-14 1c-7 1-14-4-15-12 0-7 5-13 12-14l14-1c0-11 0-21 0-31l-14-2c-7-1-12-7-12-14 1-7 7-12 13-12 1 0 1 0 2 0l14 2c1-2 1-3 1-4 2-11 4-21 8-31l-12-5c-7-3-10-10-7-17 2-5 7-8 12-8 2 0 4 0 5 1l11 5c5-12 10-23 17-33l-13-12c-5-5-5-13 0-19 3-2 6-4 9-4 4 0 7 2 9 4l10 9c5-7 11-13 16-20-40-34-92-54-148-54z m226 189c-8-45-29-85-59-117-6 7-11 13-16 20l9 10c6 5 6 13 1 18-5 6-14 6-19 1l-6-7c-5 8-9 17-12 25l14 6c7 3 10 11 7 17-3 7-11 10-17 7l-13-6c-3 9-5 17-6 26-1 0-1 1-1 1l12 1c8 1 13 7 12 15-1 7-7 12-14 11l-13-1c0 9 0 18 0 26l13-1c0 0 1 0 1 0 7 0 12 5 13 12 1 7-4 13-12 14l-12 1c2 9 4 18 6 27l14-6c1 0 3-1 5-1 5 0 10 3 12 8 3 7 0 14-7 17l-15 7c4 8 8 16 12 24l7-6c3-3 6-4 9-4 4 0 7 1 10 4 5 5 5 13-1 18l-10 11c5 7 11 14 17 21 8-9 15-18 22-27 35-51 48-112 37-172z"/>
<glyph glyph-name="email" unicode="&#108;" d="M277 384l-128 0 0-43 128 0z m64-64l-192 0 0-21 192 0z m0-43l-192 0 0-21 192 0z m86-21l0 235-363 0 0-236-43 22 0-277 448 0 0 277z m-320 192l277 0 0-211-43-23 0 21-192 0 0-22 192 0-96-51-138 71z m-43-405l0 167 313-167z m363 22l-136 73 136 72z"/>
<glyph glyph-name="keyboard" unicode="&#109;" d="M476 410c10 0 18-4 25-11 7-7 11-16 11-25 0 0 0-236 0-236 0-10-4-19-11-25-7-7-15-11-25-11 0 0-440 0-440 0-10 0-18 4-25 11-7 6-11 15-11 25 0 0 0 236 0 236 0 9 4 18 11 25 7 7 15 11 25 11 0 0 440 0 440 0m-194-52c0 0 0-51 0-51 0 0 51 0 51 0 0 0 0 51 0 51 0 0-51 0-51 0m76-76c0 0-51 0-51 0 0 0 0-52 0-52 0 0 51 0 51 0 0 0 0 52 0 52m-153 76c0 0 0-51 0-51 0 0 51 0 51 0 0 0 0 51 0 51 0 0-51 0-51 0m77-76c0 0-52 0-52 0 0 0 0-52 0-52 0 0 52 0 52 0 0 0 0 52 0 52m-154 76c0 0 0-51 0-51 0 0 51 0 51 0 0 0 0 51 0 51 0 0-51 0-51 0m77-76c0 0-51 0-51 0 0 0 0-52 0-52 0 0 51 0 51 0 0 0 0 52 0 52m-154 76c0 0 0-51 0-51 0 0 51 0 51 0 0 0 0 51 0 51 0 0-51 0-51 0m77-76c0 0-51 0-51 0 0 0 0-52 0-52 0 0 51 0 51 0 0 0 0 52 0 52m-26-128c0 0 0 51 0 51 0 0-51 0-51 0 0 0 0-51 0-51 0 0 51 0 51 0m282 0c0 0 0 51 0 51 0 0-256 0-256 0 0 0 0-51 0-51 0 0 256 0 256 0m77 0c0 0 0 51 0 51 0 0-51 0-51 0 0 0 0-51 0-51 0 0 51 0 51 0m-77 76c0 0 51 0 51 0 0 0 0 52 0 52 0 0-51 0-51 0 0 0 0-52 0-52m77 77c0 0 0 51 0 51 0 0-103 0-103 0 0 0 0-51 0-51 0 0 103 0 103 0"/>
<glyph glyph-name="paper-plane" unicode="&#111;" d="M478 445c5 2 8 1 11-1 3-2 4-6 2-10 0-2-13-55-37-159-23-103-36-157-37-161-1-5-4-8-8-10-4-2-8-2-12 0 0 0-127 69-127 69 0 0-15 8-15 8 0 0 11 14 11 14 132 143 200 216 202 218 1 1 1 3-1 4-2 2-3 2-4 1 0 0-282-206-282-206 0 0-57 22-57 22 0 0-98 39-98 39-4 2-6 4-6 7 0 2 2 4 6 6 3 1 78 28 226 80 148 52 223 79 226 79m-298-372c0 0 0 104 0 104 0 0 82-42 82-42-44-39-69-61-73-65-6-5-9-4-9 3"/>
<glyph glyph-name="facebook-circled" unicode="&#110;" d="M256 502c68 0 126-24 174-72 48-48 72-106 72-174 0-68-24-125-72-174-48-48-106-72-174-72-68 0-126 24-174 72-48 49-72 106-72 174 0 68 24 126 72 174 48 48 106 72 174 72m58-169c0 0 0 40 0 40 0 0-36 0-36 0-16 0-28-6-38-17-11-11-16-25-16-42 0 0 0-22 0-22 0 0-39 0-39 0 0 0 0-38 0-38 0 0 39 0 39 0 0 0 0-114 0-114 0 0 44 0 44 0 0 0 0 114 0 114 0 0 46 0 46 0 0 0 0 38 0 38 0 0-46 0-46 0 0 0 0 26 0 26 0 10 3 15 10 15 0 0 36 0 36 0"/>
<glyph glyph-name="twitter-circled" unicode="&#112;" d="M256 502c68 0 126-24 174-72 48-48 72-106 72-174 0-68-24-125-72-174-48-48-106-72-174-72-68 0-125 24-174 72-48 49-72 106-72 174 0 68 24 126 72 174 49 48 106 72 174 72m100-201c11 8 18 16 24 25-11-4-20-7-28-8 10 7 18 15 22 27-10-5-21-9-31-11-10 9-21 14-36 14-13 0-25-5-34-14-9-10-14-21-14-34 0-1 0-2 1-5 0-3 0-5 0-6-41 2-74 19-99 51-5-8-7-16-7-25 0-17 7-30 22-40-9 0-16 3-22 7 0 0 0-1 0-1 0-12 3-22 10-31 8-9 17-14 29-17-6-1-10-2-13-2-4 0-7 1-9 1 7-22 22-33 45-33-17-14-37-21-60-21 0 0-12 0-12 0 24-14 48-21 74-21 42 0 75 14 100 42 26 28 38 60 38 96 0 0 0 6 0 6"/>
<glyph glyph-name="linkedin-circled" unicode="&#113;" d="M256 502c68 0 126-24 174-72 48-48 72-106 72-174 0-68-24-125-72-174-48-48-106-72-174-72-68 0-125 24-174 72-48 49-72 106-72 174 0 68 24 126 72 174 49 48 106 72 174 72m-60-347c0 0 0 159 0 159 0 0-50 0-50 0 0 0 0-159 0-159 0 0 50 0 50 0m-25 180c18 0 27 8 27 24 0 17-9 25-27 25-7 0-14-2-19-7-5-5-8-11-8-18 0-16 9-24 27-24m207-180c0 0 0 94 0 94 0 22-5 40-16 52-11 11-24 17-41 17-23 0-39-8-50-25 0 0-1 0-1 0 0 0-3 21-3 21 0 0-43 0-43 0 1-9 1-26 1-51 0 0 0-108 0-108 0 0 50 0 50 0 0 0 0 92 0 92 0 6 1 10 3 12 4 13 12 20 25 20 16 0 25-12 25-35 0 0 0-89 0-89 0 0 50 0 50 0"/>
<glyph glyph-name="flickr-circled" unicode="&#114;" d="M256 502c68 0 126-24 174-72 48-48 72-106 72-174 0-68-24-125-72-174-48-48-106-72-174-72-68 0-125 24-174 72-48 49-72 106-72 174 0 68 24 126 72 174 49 48 106 72 174 72m-66-297c14 0 26 5 36 15 11 10 16 22 16 36 0 14-5 27-16 37-10 10-22 15-36 15-13 0-25-5-35-15-11-10-16-23-16-37 0-14 5-26 16-36 10-10 22-15 35-15m132 0c14 0 26 5 36 15 10 10 15 22 15 36 0 14-5 27-15 37-10 10-22 15-36 15-14 0-26-5-36-15-10-10-15-23-15-37 0-14 5-26 15-36 10-10 22-15 36-15"/>
<glyph glyph-name="gplus-circled" unicode="&#115;" d="M232 326c3-11 3-20 0-30-3-9-8-14-16-16 0 0-5 0-5 0-14 0-25 10-31 30-2 11-1 20 1 28 4 8 9 13 16 15 0 1 2 1 5 1 15 0 25-9 30-28m24 176c68 0 126-24 174-72 48-48 72-106 72-174 0-68-24-125-72-174-48-48-106-72-174-72-68 0-125 24-174 72-48 49-72 106-72 174 0 68 24 126 72 174 49 48 106 72 174 72m-14-351c20 10 30 26 30 50 0 15-8 30-26 47-9 7-14 13-14 16 0 4 4 9 11 14 11 11 17 25 17 40 0 20-6 34-18 40 0 1 2 2 5 2 3 0 4 0 5 0 14 2 20 5 20 9 0 0 0 2 0 2 0 0-59 0-59 0-4 0-10-1-17-2-7-2-16-7-27-17-11-9-16-22-16-39 0-19 6-32 19-41 8-5 17-8 29-8 0 0 3 0 3 0-2-8 1-17 8-25 0 0-1 0-1 0-47 0-71-16-71-49 0-13 5-24 15-32 9-8 18-12 25-14 7-1 14-2 20-2 0 0 2 0 2 0 0 0 2 0 2 0 13 0 26 3 38 9m130 106c0 0 0 25 0 25 0 0-39 0-39 0 0 0 0 39 0 39 0 0-25 0-25 0 0 0 0-39 0-39 0 0-39 0-39 0 0 0 0-25 0-25 0 0 39 0 39 0 0 0 0-39 0-39 0 0 25 0 25 0 0 0 0 39 0 39 0 0 39 0 39 0m-161-30c11 0 20-3 27-8 6-6 10-14 11-22 1-9-3-17-10-23-7-6-16-9-28-10-12-2-22 0-31 5-9 6-13 13-14 21 0 9 4 18 11 25 7 7 17 11 30 12 0 0 4 0 4 0"/>
<glyph glyph-name="fly3" unicode="&#116;" d="M484 283c-2 0-5 10-8 11-4 11-9 32-14 43 10 3 20 1 28 5 0 0-5 14-81 14-10 12-42 36-51 32 0 0-2-2 11-11l0-1c-44-12-16-41-31-76-10-25-67-41-93-18-2 9-4 17-5 26-4 10-10 20-16 28-7 10-20 23-31 28-10 1-26-8-36-6-17 5-33 13-47 22-10 6-26 28-37 28-11 0-2-29 19-46-12 4-29 14-39 21-2 1-5 1-7 0-2-1-4-4-4-6 2-19 19-32 28-44-7 4-26 15-34 10 0 0-10-5 17-35-3 2-22-5 14-31 3-2 4-5 8-14 21-28 85-9 85-9-8-2-14-17-16-26-31 7-140 25-144 0 0-1 0-9 31-5 0 0-20-4-19-10 2-8 22-9 35-9 0 0-15-14 29-14 30 0 51 5 80 2 0 0 1-1 1-1l-81-42c-8-2-16 5-22-3-3-7 11-8 11-8-4-5-12-5-15-11-5-8 27-14 34-3 3 5-2 10 1 15 2 3 54 30 82 45 5-3 10-6 18-7l-71-42c-8-2-16 4-22-4-3-7 12-7 12-8-4-5-12-5-15-11-4-9 28-13 34-1 4 5-2 10 1 15 3 5 72 45 79 48 48-3 106 27 106 66 9 3 18 2 25 5 29 13 17 61 33 86 27-4 47 4 72 3 0 0-8-14-8-31-39 1-56-41-38-74 12-23 46-32 77-21 23 8 37 29 41 41 4 15-2 36-27 34z"/>
<glyph glyph-name="marker" unicode="&#117;" d="M256 459c-80 0-144-65-144-145 0-32 10-62 28-86l93-161c0-1 1-2 2-3l0 0 0 0c5-6 12-11 21-11 8 0 15 4 20 10l0-1 1 2c1 2 2 4 3 6l91 157c18 24 29 55 29 87 0 80-64 145-144 145z m-1-218c-40 0-72 32-72 71 0 40 32 71 72 71 39 0 71-31 71-71 0-39-32-71-71-71z"/>
<glyph glyph-name="graduation-cap" unicode="&#118;" d="M85 199c0 0 171-86 171-86 0 0 141 69 141 69-1-7-2-15-4-24-1-8-2-14-3-18-1-3-2-7-5-11-4-5-8-9-13-12-5-4-13-7-23-12-13-6-27-13-41-21-13-7-24-13-32-17-8-4-15-6-20-6-5 0-12 3-20 7-9 5-20 11-33 19-14 8-28 15-41 21-25 10-42 22-53 35-11 12-19 31-24 56m415 126c8-5 12-11 12-17 0-7-4-12-12-17 0 0-40-23-40-23 0 0-158 53-158 53-7 12-23 18-46 18-14 0-25-3-34-8-10-6-14-13-14-21 0-8 4-15 14-20 9-6 20-8 34-8 9 0 15 0 18 2 0 0 150-35 150-35 0 0-137-78-137-78-21-11-41-11-62 0 0 0-213 120-213 120-8 5-12 10-12 17 0 6 4 12 12 17 0 0 213 119 213 119 21 11 41 11 62 0 0 0 213-119 213-119m-66-227c6 40 9 71 7 93-2 23-5 38-10 47 0 0-7 11-7 11 0 0 36 19 36 19 2-2 4-7 6-14 2-7 5-24 9-52 3-27 2-61-4-101-1-9-5-14-11-15-6-1-12 0-18 3-6 3-9 6-8 9"/>
<glyph glyph-name="code" unicode="&#119;" d="M165 122l-14-13c-2-2-4-3-6-3-2 0-4 1-6 3l-124 124c-2 2-3 4-3 6 0 2 1 4 3 6l124 124c2 2 4 3 6 3 2 0 4-1 6-3l14-13c1-2 2-4 2-6 0-2-1-4-2-6l-105-105 105-105c1-2 2-4 2-6 0-2-1-4-2-6z m157 284l-99-344c-1-2-2-4-4-5-3-1-5-1-7-1l-16 5c-3 1-4 2-5 4-2 2-2 4-1 6l99 345c1 2 2 4 4 5 3 1 5 1 7 1l16-5c3-1 4-2 5-4 2-2 2-4 1-7z m175-173l-124-124c-2-2-4-3-6-3-2 0-4 1-6 3l-14 13c-1 2-2 4-2 6 0 2 1 4 2 6l105 105-105 105c-1 2-2 4-2 6 0 2 1 4 2 6l14 13c2 2 4 3 6 3 2 0 4-1 6-3l124-124c2-2 3-4 3-6 0-2-1-4-3-6z"/>
<glyph glyph-name="network" unicode="&#120;" d="M135 335c-7 0-15-2-21-5-17 17-32 39-47 65 18 26 40 46 65 61 32-13 57-27 78-42-2-6-3-11-3-17 0-2 1-5 2-11-21-16-41-34-59-53-6 1-11 2-15 2m-50-50c0-12 3-22 10-31-20-39-34-79-41-119-22 36-34 77-34 121 0 38 9 73 26 105 13-21 27-40 43-57-3-8-4-15-4-19m172 162c-10 0-18-2-26-7-19 15-39 27-58 36 29 10 56 16 83 16 41 0 80-11 118-32-26-5-54-14-83-26-9 9-20 13-34 13m75-235c-55 8-104 27-149 57 2 7 2 12 2 16 0 8-2 17-7 26 13 15 30 31 50 46 9-6 19-10 29-10 5 0 11 1 19 4 33-37 55-78 69-123-5-4-10-10-13-16m65-68c13 5 23 15 28 31 20 1 38 5 55 9-15-50-44-89-85-118 2 16 3 33 3 50 0 3 0 8 0 14-1 6-1 11-1 14m-76 34c-65-33-117-79-156-139-31 12-58 31-81 56 4 49 18 96 41 141 2-1 5-2 10-2 10 0 19 3 27 8 48-34 101-55 159-64m94 252c51-46 77-104 77-174 0-8-1-19-3-34-21-6-44-10-66-12-8 19-23 29-45 31-17 49-42 95-76 135 3 7 5 14 5 21 0 0 0 5 0 5 34 15 70 24 108 28m-70-278c5-4 10-7 16-10 1-6 1-15 1-26 0-28-2-52-7-74-29-14-62-22-99-22-20 0-39 3-57 7 37 54 86 96 146 125"/>
<glyph glyph-name="lifebuoy" unicode="&#121;" d="M253 492c65 0 120-22 167-67 46-45 70-100 72-165 0-65-22-121-68-167-45-47-100-71-165-73-65 0-121 22-167 68-47 45-71 100-72 165-1 65 21 121 67 167 46 47 101 71 166 72m0-31c-32 0-63-8-91-23 0 0 32-53 32-53 19 10 39 14 62 14 23 0 43-4 62-14 0 0 32 53 32 53-30 16-62 23-97 23m-126-267c-10 20-14 41-14 62 0 22 4 43 14 63 0 0-52 32-52 32-16-30-24-62-24-97 1-33 9-64 24-92 0 0 52 32 52 32m132-143c34 2 64 9 91 24 0 0-32 53-32 53-20-10-41-15-62-15-21 0-42 5-62 15 0 0-32-53-32-53 29-16 62-24 97-24m-3 92c31 0 58 11 80 34 22 22 33 48 33 79 0 31-11 58-33 80-22 22-49 33-80 33-31 0-58-11-80-33-22-22-33-49-33-80 0-31 11-57 33-79 22-23 49-34 80-34m129 51c0 0 53-32 53-32 16 33 23 65 23 97 0 33-8 64-23 92 0 0-53-32-53-32 10-20 14-41 14-63 0-21-4-42-14-62"/>
<glyph glyph-name="vimeo" unicode="&#122;" d="M484 362c-11-63-40-123-87-179-48-57-90-97-126-122-14-9-28-12-41-8-14 3-25 10-34 19-9 9-17 20-22 31-6 11-19 52-40 123-21 70-34 109-38 114-5 4-12 5-19 3-8-3-15-6-23-11 0 0-10-7-10-7 0 0-19 25-19 25 6 7 14 16 24 27 9 11 27 26 51 45 25 20 46 31 64 35 10 2 19 1 27-4 8-4 14-10 18-18 5-7 9-18 12-31 3-12 6-24 8-35 1-11 3-24 6-39 2-14 4-26 6-34 5-18 9-32 11-41 3-9 5-18 9-28 3-9 6-16 9-20 3-3 6-5 9-5 14 0 35 28 65 85 14 26 15 47 3 63-12 17-32 17-57 1 7 43 31 75 71 96 36 19 67 20 93 5 28-16 38-46 30-90"/>
<glyph glyph-name="game69" unicode="&#65;" d="M491 60l-79 69-44 66 5 84 23-58c5-11 19-17 30-12 12 5 18 18 13 30l-52 129c-32 42-83 25-85 26l-86 109c-8 10-15 12-25 4-10-8-12-22-4-32l87-109c5-6 13-85 13-85l-18-76c0 0-8-56-6-73 1-17 61-94 61-94 33-51 46-36 46-36 0 0 18 6 4 29l-61 88 5 73 54-78 68-55c19-17 28-26 41-23 22 9 10 24 10 24z m-91 395c0-29-24-53-53-53-29 0-52 24-52 53 0 29 23 52 52 52 29 0 53-23 53-52z m-256 26c0 12-28 22-63 22-35 0-63-10-63-22 0-12 28-22 63-22 35 0 63 10 63 22z"/>
<glyph glyph-name="trophy" unicode="&#66;" d="M287 145c0 0 0-33 0-33 24-3 43-9 59-17 16-8 24-18 24-28 0-13-11-23-34-33-22-9-49-14-80-14-31 0-57 5-80 14-22 10-34 20-34 33 0 10 8 20 24 28 16 8 36 14 60 17 0 0 0 33 0 33 0 17-5 32-17 43-11 12-30 27-57 45-20 13-34 23-45 32-11 8-23 21-38 37-15 16-26 34-33 55-7 21-10 44-10 70 0 5 1 9 5 12 4 4 8 5 13 5 0 0 88 0 88 0 16 32 58 48 124 48 67 0 109-16 125-48 0 0 87 0 87 0 5 0 9-1 13-5 4-3 5-7 5-12 0-26-3-49-10-70-7-21-18-39-33-55-15-16-27-29-38-37-11-9-25-19-45-32-26-17-45-32-56-44-12-12-17-27-17-44m70 129c28 20 49 39 65 59 16 20 25 45 28 76 0 0-65 0-65 0-2-54-11-99-28-135m-101 187c-21 0-40-3-55-8-16-5-27-10-33-16-6-6-9-11-9-15 0-5 3-10 9-16 6-6 17-11 33-16 15-5 34-8 55-8 21 0 40 3 55 8 16 5 27 10 33 16 6 6 9 11 9 16 0 4-3 9-9 15-6 6-17 11-33 16-15 5-34 8-55 8m-194-52c3-31 12-56 28-76 16-20 37-39 65-59-17 36-26 81-28 135 0 0-65 0-65 0"/>
<glyph glyph-name="tasks" unicode="&#67;" d="M293 110l182 0 0 36-182 0z m-110 146l292 0 0 37-292 0z m183 146l109 0 0 37-109 0z m146-237l0-74c0-5-2-9-5-12-4-4-8-6-13-6l-476 0c-5 0-9 2-13 6-3 3-5 7-5 12l0 74c0 5 2 9 5 12 4 4 8 6 13 6l476 0c5 0 9-2 13-6 3-3 5-7 5-12z m0 146l0-73c0-5-2-10-5-13-4-4-8-6-13-6l-476 0c-5 0-9 2-13 6-3 3-5 8-5 13l0 73c0 5 2 9 5 13 4 3 8 5 13 5l476 0c5 0 9-2 13-5 3-4 5-8 5-13z m0 146l0-73c0-5-2-9-5-13-4-3-8-5-13-5l-476 0c-5 0-9 2-13 5-3 4-5 8-5 13l0 73c0 5 2 9 5 13 4 4 8 5 13 5l476 0c5 0 9-1 13-5 3-4 5-8 5-13z"/>
</font>
</defs>
</svg>
