<?xml version="1.0" standalone="no"?>
<!DOCTYPE svg PUBLIC "-//W3C//DTD SVG 20010904//EN"
 "http://www.w3.org/TR/2001/REC-SVG-20010904/DTD/svg10.dtd">
<svg version="1.0" xmlns="http://www.w3.org/2000/svg"
 width="713.000000pt" height="713.000000pt" viewBox="0 0 713.000000 713.000000"
 preserveAspectRatio="xMidYMid meet">
<metadata>
Created by potrace 1.11, written by Peter Selinger 2001-2013
</metadata>
<g transform="translate(0.000000,713.000000) scale(0.100000,-0.100000)"
fill="#000000" stroke="none">
<path d="M3280 6990 c-739 -55 -1491 -385 -2045 -897 -589 -544 -955 -1237
-1081 -2048 -26 -168 -28 -200 -28 -490 0 -290 2 -322 28 -490 125 -807 495
-1508 1076 -2043 509 -468 1119 -761 1820 -873 189 -31 205 -32 515 -32 309 0
326 1 510 31 595 95 1103 309 1564 656 720 543 1187 1325 1333 2231 30 183 31
202 31 515 1 307 -1 335 -27 505 -124 801 -498 1504 -1089 2046 -496 456
-1124 756 -1802 860 -164 26 -225 30 -445 34 -140 2 -302 0 -360 -5z m535
-1540 c731 -39 1219 -178 1250 -355 3 -16 2 -133 -4 -260 -5 -126 -8 -231 -7
-232 1 -1 38 5 81 13 115 21 396 30 492 15 193 -30 326 -98 416 -213 101 -128
155 -357 144 -613 -8 -162 -30 -252 -95 -380 -86 -171 -209 -280 -454 -404
-214 -108 -362 -159 -691 -235 -103 -24 -190 -46 -194 -50 -8 -8 -66 -300
-103 -526 -17 -102 -40 -216 -52 -255 -75 -250 -359 -430 -790 -502 -130 -21
-454 -24 -583 -5 -431 65 -731 251 -814 505 -18 55 -201 951 -280 1372 -107
564 -173 1111 -187 1550 -6 199 -6 213 14 257 47 107 237 191 567 253 345 64
841 89 1290 65z"/>
<path d="M4123 4823 c-10 -4 -13 -98 -13 -424 l0 -419 -44 0 c-25 0 -56 -4
-70 -10 -37 -14 -199 -173 -241 -236 l-36 -54 3 -327 c3 -325 3 -328 26 -359
13 -16 37 -39 55 -50 30 -18 53 -19 343 -19 l310 0 41 27 c72 47 73 55 73 416
l0 320 -44 58 c-43 59 -155 171 -210 212 -20 16 -43 22 -77 22 l-49 0 0 425 0
425 -27 -1 c-16 0 -34 -3 -40 -6z m302 -1228 c30 -29 31 -45 6 -76 l-19 -24
-252 0 c-238 0 -252 1 -266 19 -21 30 -18 72 8 90 19 13 61 16 261 16 l238 0
24 -25z m6 -224 c24 -30 24 -42 -2 -75 l-20 -26 -243 0 c-202 0 -245 3 -264
16 -36 25 -25 91 18 107 8 3 122 5 253 4 238 -2 239 -2 258 -26z m-15 -219
c26 -17 35 -51 22 -80 l-13 -27 -257 -3 c-223 -2 -258 0 -272 14 -21 20 -20
63 1 86 15 16 36 18 262 18 135 0 251 -4 257 -8z"/>
<path d="M5215 4309 c-33 -5 -91 -17 -130 -26 l-69 -18 -37 -255 c-41 -277
-69 -442 -126 -737 -20 -106 -35 -195 -32 -197 8 -8 467 109 544 139 97 37
245 116 303 161 54 43 110 110 139 169 95 188 74 495 -44 642 -40 50 -149 108
-232 123 -63 12 -231 11 -316 -1z"/>
</g>
</svg>
