<?xml version="1.0" standalone="no"?>
<!DOCTYPE svg PUBLIC "-//W3C//DTD SVG 20010904//EN"
 "http://www.w3.org/TR/2001/REC-SVG-20010904/DTD/svg10.dtd">
<svg version="1.0" xmlns="http://www.w3.org/2000/svg"
 width="397.000000pt" height="398.000000pt" viewBox="0 0 397.000000 398.000000"
 preserveAspectRatio="xMidYMid meet">
<metadata>
Created by potrace 1.11, written by Peter Selinger 2001-2013
</metadata>
<g transform="translate(0.000000,398.000000) scale(0.100000,-0.100000)"
fill="#000000" stroke="none">
<path d="M1772 3969 c-321 -40 -584 -131 -838 -290 -460 -287 -791 -764 -893
-1289 -32 -160 -34 -179 -36 -380 -2 -203 6 -284 46 -460 187 -817 862 -1423
1701 -1527 127 -16 448 -9 548 12 14 3 39 7 55 9 62 7 234 57 345 99 299 113
609 335 806 577 16 19 35 41 41 48 55 57 201 305 261 442 57 130 122 354 137
475 4 28 9 61 12 75 9 47 11 365 2 435 -19 153 -27 200 -59 317 -56 212 -178
474 -292 628 -101 136 -197 241 -309 339 -105 92 -123 107 -156 128 -15 9 -30
20 -33 23 -8 9 -150 94 -210 127 -131 70 -355 151 -490 177 -43 8 -134 25
-170 31 -57 10 -400 13 -468 4z"/>
</g>
</svg>
