<?xml version="1.0" encoding="iso-8859-1"?>
<!-- Generator: Adobe Illustrator 18.0.0, SVG Export Plug-In . SVG Version: 6.00 Build 0)  -->
<!DOCTYPE svg PUBLIC "-//W3C//DTD SVG 1.1//EN" "http://www.w3.org/Graphics/SVG/1.1/DTD/svg11.dtd">
<svg version="1.1" id="Capa_1" xmlns="http://www.w3.org/2000/svg" xmlns:xlink="http://www.w3.org/1999/xlink" x="0px" y="0px"
	 viewBox="0 0 302 302" style="enable-background:new 0 0 302 302;" xml:space="preserve">
<g>
	<path d="M262.771,151c1.351-1.653,2.657-3.309,3.911-4.966c20.368-26.927,25.81-51.831,15.322-70.125
		c-6.073-10.597-20.022-23.228-51.983-23.228c-7.315,0-15.096,0.672-23.215,1.967c-0.835-2.204-1.69-4.377-2.587-6.481
		C190.987,17.106,172.087,0,151,0s-39.987,17.106-53.22,48.167c-0.896,2.104-1.752,4.277-2.587,6.481
		c-8.119-1.295-15.899-1.967-23.215-1.967c-31.961,0-45.91,12.631-51.983,23.227c-10.487,18.295-5.046,43.199,15.322,70.126
		c1.254,1.657,2.56,3.313,3.911,4.966c-1.35,1.654-2.657,3.31-3.91,4.966c-20.368,26.927-25.811,51.831-15.323,70.125
		c6.073,10.597,20.023,23.229,51.984,23.229c0.002,0-0.001,0,0.001,0c7.314,0,15.095-0.672,23.214-1.967
		c0.834,2.204,1.69,4.376,2.586,6.48C111.013,284.894,129.913,302,151,302s39.987-17.106,53.22-48.167
		c0.896-2.104,1.752-4.276,2.586-6.48c8.119,1.295,15.899,1.967,23.215,1.967c31.962,0,45.911-12.632,51.984-23.228
		c10.487-18.295,5.045-43.199-15.323-70.126C265.429,154.31,264.121,152.654,262.771,151z M230.021,77.682
		c15.369,0,26.411,3.885,30.294,10.66c5.037,8.787-0.036,24.717-13.571,42.61c-0.382,0.504-0.794,1.009-1.186,1.513
		c-7.692-7.38-16.238-14.596-25.476-21.512c-1.377-11.206-3.333-21.975-5.832-32.122C219.781,78.077,225.065,77.682,230.021,77.682z
		 M174.125,191.344c-7.65,4.385-15.398,8.391-23.125,11.986c-7.727-3.596-15.474-7.602-23.124-11.986
		c-7.766-4.451-15.215-9.152-22.278-14.035c-0.724-8.557-1.098-17.357-1.098-26.309s0.374-17.752,1.098-26.308
		c7.063-4.884,14.512-9.584,22.277-14.035c7.65-4.385,15.398-8.391,23.125-11.986c7.727,3.596,15.475,7.602,23.125,11.986
		c7.766,4.451,15.214,9.151,22.277,14.035c0.724,8.556,1.098,17.356,1.098,26.308s-0.374,17.752-1.099,26.309
		C189.339,182.191,181.891,186.893,174.125,191.344z M191.629,210.064c-0.567,2.671-1.165,5.306-1.81,7.882
		c-2.576-0.729-5.176-1.512-7.802-2.359c1.515-0.839,3.029-1.687,4.541-2.553C188.263,212.056,189.951,211.064,191.629,210.064z
		 M119.984,215.586c-2.626,0.848-5.227,1.63-7.803,2.359c-0.646-2.576-1.243-5.211-1.811-7.883c1.679,1.001,3.367,1.993,5.072,2.971
		C116.955,213.899,118.469,214.747,119.984,215.586z M79.562,156.885c-2.181-1.95-4.314-3.91-6.356-5.885
		c2.042-1.975,4.176-3.935,6.356-5.885c-0.033,1.957-0.062,3.916-0.062,5.885C79.5,152.969,79.528,154.928,79.562,156.885z
		 M110.371,91.938c0.566-2.672,1.165-5.307,1.811-7.883c2.575,0.729,5.176,1.513,7.803,2.359c-1.516,0.839-3.029,1.687-4.541,2.553
		C113.738,89.945,112.05,90.938,110.371,91.938z M182.016,86.415c2.627-0.847,5.228-1.63,7.803-2.359
		c0.645,2.576,1.244,5.211,1.81,7.883c-1.679-1.001-3.367-1.993-5.072-2.971C185.045,88.102,183.531,87.254,182.016,86.415z
		 M222.438,145.115c2.181,1.95,4.314,3.91,6.356,5.885c-2.042,1.975-4.176,3.935-6.356,5.886c0.033-1.958,0.062-3.917,0.062-5.886
		C222.5,149.031,222.472,147.072,222.438,145.115z M120.78,57.965C129.574,37.323,140.871,25,151,25s21.426,12.323,30.22,32.965
		c0.313,0.733,0.607,1.498,0.911,2.246c-10.138,2.907-20.578,6.623-31.131,11.083c-10.553-4.46-20.993-8.176-31.131-11.083
		C120.174,59.463,120.468,58.698,120.78,57.965z M41.685,88.341c3.883-6.774,14.925-10.659,30.294-10.659
		c4.956,0,10.24,0.396,15.771,1.149c-2.499,10.147-4.455,20.916-5.832,32.122c-9.237,6.916-17.783,14.132-25.476,21.512
		c-0.393-0.504-0.805-1.009-1.187-1.513C41.721,113.059,36.648,97.129,41.685,88.341z M71.981,224.319
		c-15.597,0-26.356-3.786-30.296-10.661c-5.037-8.787,0.036-24.716,13.571-42.609c0.382-0.504,0.794-1.009,1.187-1.513
		c7.692,7.38,16.238,14.596,25.476,21.512c1.377,11.206,3.333,21.975,5.832,32.123C82.219,223.924,76.936,224.319,71.981,224.319z
		 M181.22,244.035C172.426,264.677,161.129,277,151,277s-21.426-12.323-30.22-32.965c-0.313-0.733-0.607-1.498-0.91-2.246
		c10.137-2.906,20.577-6.622,31.129-11.082c10.554,4.46,20.994,8.176,31.131,11.083C181.826,242.538,181.532,243.302,181.22,244.035
		z M260.315,213.659c-3.94,6.874-14.699,10.66-30.295,10.66c-4.956,0-10.239-0.396-15.77-1.148
		c2.499-10.148,4.455-20.917,5.832-32.123c9.237-6.915,17.783-14.132,25.476-21.512c0.393,0.504,0.805,1.009,1.186,1.513
		C260.279,188.942,265.353,204.871,260.315,213.659z"/>
	<circle cx="151" cy="151" r="32.5"/>
</g>
<g>
</g>
<g>
</g>
<g>
</g>
<g>
</g>
<g>
</g>
<g>
</g>
<g>
</g>
<g>
</g>
<g>
</g>
<g>
</g>
<g>
</g>
<g>
</g>
<g>
</g>
<g>
</g>
<g>
</g>
</svg>
