<?xml version="1.0" encoding="iso-8859-1"?>
<!-- Generator: Adobe Illustrator 17.1.0, SVG Export Plug-In . SVG Version: 6.00 Build 0)  -->
<!DOCTYPE svg PUBLIC "-//W3C//DTD SVG 1.1//EN" "http://www.w3.org/Graphics/SVG/1.1/DTD/svg11.dtd">
<svg version="1.1" id="Capa_1" xmlns="http://www.w3.org/2000/svg" xmlns:xlink="http://www.w3.org/1999/xlink" x="0px" y="0px"
	 viewBox="0 0 208.531 208.531" style="enable-background:new 0 0 208.531 208.531;" xml:space="preserve">
<path d="M202.549,54.509c-4.057-0.835-8.025,1.768-8.864,5.825c-0.02,0.097-1.633,7.118-7.504,16.152l-54.135-54.135
	c9.011-5.854,16.029-7.478,16.191-7.514c4.033-0.857,6.621-4.813,5.785-8.855c-0.84-4.057-4.81-6.662-8.864-5.825
	c-0.74,0.153-18.317,3.948-35.627,21.257C92.253,38.691,92.358,65.283,95.54,95.997c-30.121-3.318-55.968-4.624-73.028,12.435
	c-17.78,17.78-22.137,35.783-22.314,36.541c-0.941,4.033,1.565,8.066,5.6,9.008c0.573,0.134,1.146,0.198,1.71,0.198
	c3.407-0.001,6.49-2.337,7.297-5.798c0.024-0.101,1.897-7.439,8.116-16.864l54.094,54.094c-9.445,6.233-16.788,8.095-16.865,8.115
	c-4.034,0.941-6.541,4.975-5.599,9.008c0.808,3.461,3.89,5.798,7.297,5.798c0.564,0,1.138-0.064,1.711-0.198
	c0.757-0.177,18.76-4.535,36.54-22.314c17.06-17.059,15.753-42.906,12.436-73.027c30.716,3.181,57.307,3.286,74.583-13.991
	c17.309-17.31,21.104-34.887,21.257-35.627C209.213,59.317,206.606,55.349,202.549,54.509z M181.395,83.012
	c-1.461,1.775-3.081,3.578-4.885,5.382c-1.175,1.175-2.428,2.242-3.76,3.21l-55.822-55.822c0.968-1.333,2.035-2.585,3.21-3.76
	c1.803-1.803,3.607-3.424,5.381-4.884L181.395,83.012z M151.549,98.951l-41.969-41.97c0.613-5.226,1.69-9.84,3.338-13.898
	l52.53,52.53C161.39,97.261,156.776,98.338,151.549,98.951z M57.766,109.264l41.501,41.501c-0.457,5.226-1.406,9.976-3.054,14.181
	l-52.628-52.629C47.789,110.671,52.539,109.721,57.766,109.264z M68.77,108.956c8.589,0.177,18.14,1.154,28.48,2.325
	c1.172,10.34,2.148,19.891,2.325,28.48L68.77,108.956z M27.721,125.004c1.609-1.965,3.398-3.965,5.397-5.965
	c0.993-0.993,2.052-1.888,3.162-2.711l55.922,55.923c-0.823,1.11-1.718,2.169-2.711,3.161c-2,2-4,3.788-5.965,5.397L27.721,125.004z
	 M110.811,97.72c-1.236-11.475-1.961-21.441-1.868-30.062l31.93,31.929C132.253,99.682,122.286,98.956,110.811,97.72z"/>
<g>
</g>
<g>
</g>
<g>
</g>
<g>
</g>
<g>
</g>
<g>
</g>
<g>
</g>
<g>
</g>
<g>
</g>
<g>
</g>
<g>
</g>
<g>
</g>
<g>
</g>
<g>
</g>
<g>
</g>
</svg>
